<svg width="30.000000" height="30.000000" viewBox="0 0 30 30" fill="none" xmlns="http://www.w3.org/2000/svg" xmlns:xlink="http://www.w3.org/1999/xlink">
	<desc>
			Created with Pixso.
	</desc>
	<defs>
		<clipPath id="clip6_181">
			<rect id="smartphone (1) 1" width="30.000000" height="30.000000" fill="white" fill-opacity="0"/>
		</clipPath>
	</defs>
	<rect id="smartphone (1) 1" width="30.000000" height="30.000000" fill="#FFFFFF" fill-opacity="0"/>
	<g clip-path="url(#clip6_181)">
		<path id="Vector" d="M17.5 1.5L12.5 1.5C12.2241 1.5 12 1.72363 12 2C12 2.27637 12.2241 2.5 12.5 2.5L17.5 2.5C17.7759 2.5 18 2.27637 18 2C18 1.72363 17.7759 1.5 17.5 1.5Z" fill="#FFFFFF" fill-opacity="1.000000" fill-rule="nonzero"/>
		<path id="Vector" d="M21 1.5L20.5 1.5C20.2241 1.5 20 1.72363 20 2C20 2.27637 20.2241 2.5 20.5 2.5L21 2.5C21.2759 2.5 21.5 2.27637 21.5 2C21.5 1.72363 21.2759 1.5 21 1.5Z" fill="#FFFFFF" fill-opacity="1.000000" fill-rule="nonzero"/>
		<path id="Vector" d="M15.6211 25.5L14.3794 25.5C13.6191 25.5 13 26.1191 13 26.8799L13 27.1211C13 27.8818 13.6191 28.5 14.3789 28.5L15.6206 28.5C16.3809 28.5 17 27.8818 17 27.1211L17 26.8799C17 26.1191 16.3809 25.5 15.6211 25.5ZM16 27.1211C16 27.3301 15.8301 27.5 15.6211 27.5L14.3794 27.5C14.1699 27.5 14 27.3301 14 27.1211L14 26.8799C14 26.6699 14.1699 26.5 14.3794 26.5L15.6206 26.5C15.8301 26.5 16 26.6699 16 26.8799L16 27.1211Z" fill="#FFFFFF" fill-opacity="1.000000" fill-rule="nonzero"/>
		<path id="Vector" d="M21.6929 0L8.30762 0C7.31104 0 6.5 0.810547 6.5 1.80762L6.5 28.1924C6.5 29.1895 7.31104 30 8.30762 30L21.6924 30C22.689 30 23.5 29.1895 23.5 28.1934L23.5 1.80762C23.5 0.810547 22.689 0 21.6929 0ZM22.5 28.1924C22.5 28.6377 22.1382 29 21.6929 29L8.30762 29C7.86182 29 7.5 28.6377 7.5 28.1934L7.5 1.80762C7.5 1.3623 7.86182 1 8.30762 1L21.6924 1C22.1382 1 22.5 1.3623 22.5 1.80762L22.5 28.1924L22.5 28.1924Z" fill="#FFFFFF" fill-opacity="1.000000" fill-rule="nonzero"/>
		<path id="Vector" d="M23 3L7 3C6.72412 3 6.5 3.22363 6.5 3.5L6.5 24.5C6.5 24.7764 6.72412 25 7 25L23 25C23.2759 25 23.5 24.7764 23.5 24.5L23.5 3.5C23.5 3.22363 23.2759 3 23 3ZM22.5 24L7.5 24L7.5 4L22.5 4L22.5 24Z" fill="#FFFFFF" fill-opacity="1.000000" fill-rule="nonzero"/>
	</g>
</svg>
